<svg xmlns="http://www.w3.org/2000/svg" viewBox="0 0 1600 1600" width="1600" height="1600" role="img">

<defs>
  <linearGradient id="metal" gradientUnits="userSpaceOnUse" x1="0" y1="0" x2="1600" y2="1600">
    <stop offset="0%" stop-color="#F4F2EC"/>
    <stop offset="38%" stop-color="#CFCBC0"/>
    <stop offset="62%" stop-color="#8B8579"/>
    <stop offset="100%" stop-color="#CFCBC0"/>
  </linearGradient>
  <linearGradient id="metal2" gradientUnits="userSpaceOnUse" x1="1600" y1="0" x2="0" y2="1600">
    <stop offset="0%" stop-color="#CFCBC0"/>
    <stop offset="50%" stop-color="#F4F2EC"/>
    <stop offset="100%" stop-color="#8B8579"/>
  </linearGradient>
  <radialGradient id="stone" cx="35%" cy="30%">
    <stop offset="0%" stop-color="#FFFFFF"/>
    <stop offset="55%" stop-color="#E8EEF2"/>
    <stop offset="100%" stop-color="#A9B7C2"/>
  </radialGradient>
  <radialGradient id="ground" cx="50%" cy="46%">
    <stop offset="0%" stop-color="#FFFFFF"/>
    <stop offset="62%" stop-color="#FDFAF4"/>
    <stop offset="100%" stop-color="#F5E6C8"/>
  </radialGradient>
  <radialGradient id="shadow" cx="50%" cy="50%">
    <stop offset="0%" stop-color="#1A1512" stop-opacity="0.10"/>
    <stop offset="100%" stop-color="#1A1512" stop-opacity="0"/>
  </radialGradient>
</defs>
<rect width="1600" height="1600" fill="url(#ground)"/>

<ellipse cx="800" cy="992" rx="544" ry="480" fill="url(#shadow)"/>
<g transform="translate(800 710) scale(0.66) translate(-800 -800)">
    <path d="M 380 250 Q 800 520 1220 250" fill="none" stroke="url(#metal)" stroke-width="12" stroke-linecap="round" stroke-linejoin="round"/>
    <ellipse cx="800" cy="670" rx="58" ry="82" fill="none" stroke="url(#metal)" stroke-width="22" stroke-linecap="round" stroke-linejoin="round"/>
    <path d="M 800 760 L 1030 950 L 800 1270 L 570 950 Z" fill="url(#metal)" stroke="url(#metal)" stroke-width="10"/>
    <g><polygon points="920.1,920.3 920.1,1019.7 849.7,1090.1 750.3,1090.1 679.9,1019.7 679.9,920.3 750.3,849.9 849.7,849.9" fill="url(#stone)" stroke="url(#metal)" stroke-width="20.8"/><polygon points="860.1,945.1 860.1,994.9 824.9,1030.1 775.1,1030.1 739.9,994.9 739.9,945.1 775.1,909.9 824.9,909.9" fill="#FFFFFF" fill-opacity="0.28"/><path d="M920.1,920.3L860.1,945.1M920.1,1019.7L860.1,994.9M849.7,1090.1L824.9,1030.1M750.3,1090.1L775.1,1030.1M679.9,1019.7L739.9,994.9M679.9,920.3L739.9,945.1M750.3,849.9L775.1,909.9M849.7,849.9L824.9,909.9" stroke="#FFFFFF" stroke-opacity="0.55" stroke-width="6.5" fill="none"/></g></g>
     <circle cx="240" cy="1290" r="70" fill="none" stroke="#6E645C" stroke-width="5" stroke-dasharray="12 9"/>
     <text x="240" y="1420" font-family="Inter, sans-serif" font-size="42" fill="#6E645C" text-anchor="middle">20 mm</text>
     <line x1="300" y1="1330" x2="1300" y2="1330" stroke="#6E645C" stroke-width="5"/>
     <line x1="300" y1="1330" x2="300" y2="1250" stroke="#6E645C" stroke-width="4"/><line x1="425" y1="1330" x2="425" y2="1290" stroke="#6E645C" stroke-width="4"/><line x1="550" y1="1330" x2="550" y2="1290" stroke="#6E645C" stroke-width="4"/><line x1="675" y1="1330" x2="675" y2="1290" stroke="#6E645C" stroke-width="4"/><line x1="800" y1="1330" x2="800" y2="1290" stroke="#6E645C" stroke-width="4"/><line x1="925" y1="1330" x2="925" y2="1250" stroke="#6E645C" stroke-width="4"/><line x1="1050" y1="1330" x2="1050" y2="1290" stroke="#6E645C" stroke-width="4"/><line x1="1175" y1="1330" x2="1175" y2="1290" stroke="#6E645C" stroke-width="4"/><line x1="1300" y1="1330" x2="1300" y2="1290" stroke="#6E645C" stroke-width="4"/>
     <text x="800" y="1420" font-family="Inter, sans-serif" font-size="42" fill="#6E645C" text-anchor="middle">8 cm</text>

</svg>